<?xml version="1.0" standalone="no"?>
<!DOCTYPE svg PUBLIC "-//W3C//DTD SVG 20010904//EN"
 "http://www.w3.org/TR/2001/REC-SVG-20010904/DTD/svg10.dtd">
<svg version="1.0" xmlns="http://www.w3.org/2000/svg"
 width="225.000000pt" height="225.000000pt" viewBox="0 0 225.000000 225.000000"
 preserveAspectRatio="xMidYMid meet">

<g transform="translate(0.000000,225.000000) scale(0.100000,-0.100000)"
fill="#000000" stroke="none">
<path d="M1071 2004 c-17 -21 -21 -41 -21 -93 l0 -66 -60 -12 c-181 -34 -337
-171 -401 -353 -22 -61 -24 -83 -27 -343 l-4 -278 -53 -39 c-29 -22 -63 -53
-74 -69 -61 -86 -81 -201 -41 -241 19 -19 33 -20 245 -20 l225 0 0 -25 c0 -45
39 -130 77 -167 111 -108 283 -103 385 10 34 38 68 119 68 164 0 17 14 18 225
18 212 0 226 1 245 20 40 40 20 155 -41 241 -11 16 -45 47 -74 69 l-53 39 -4
278 c-3 260 -5 282 -27 343 -64 182 -220 319 -401 353 l-60 12 0 66 c0 83 -23
119 -75 119 -24 0 -39 -7 -54 -26z m242 -336 c74 -35 157 -114 189 -180 40
-81 48 -151 48 -416 0 -284 3 -296 97 -358 46 -30 73 -59 73 -78 0 -3 -268 -6
-595 -6 -327 0 -595 3 -595 8 0 18 33 52 75 76 27 16 55 44 70 70 25 43 25 44
25 288 0 134 5 271 11 304 25 139 112 244 248 301 50 21 69 23 176 21 106 -3
127 -6 178 -30z m-63 -1188 c0 -6 -6 -26 -14 -45 -17 -40 -68 -75 -111 -75
-43 0 -94 35 -111 75 -8 19 -14 39 -14 45 0 6 46 10 125 10 79 0 125 -4 125
-10z"/>
</g>
</svg>
