<?xml version="1.0" standalone="no"?>
<!DOCTYPE svg PUBLIC "-//W3C//DTD SVG 20010904//EN"
 "http://www.w3.org/TR/2001/REC-SVG-20010904/DTD/svg10.dtd">
<svg version="1.0" xmlns="http://www.w3.org/2000/svg"
 width="900.000000pt" height="512.000000pt" viewBox="0 0 900.000000 512.000000"
 preserveAspectRatio="xMidYMid meet">

<g transform="translate(0.000000,512.000000) scale(0.100000,-0.100000)"
fill="#000000" stroke="none">
<path d="M6230 3983 c-78 -8 -203 -35 -274 -58 -42 -14 -324 -135 -626 -270
-303 -135 -556 -245 -563 -245 -7 0 -276 81 -599 180 -323 98 -617 184 -653
191 -38 6 -119 9 -188 7 -120 -5 -124 -6 -232 -53 -123 -55 -158 -83 -175
-142 -29 -97 14 -141 318 -324 130 -79 301 -182 378 -229 l142 -86 -419 -187
c-231 -103 -430 -187 -442 -187 -13 0 -125 77 -265 180 -134 99 -257 187 -273
195 -105 55 -317 8 -388 -84 -22 -29 -26 -44 -25 -95 1 -57 14 -91 197 -501
209 -466 221 -487 312 -540 22 -13 74 -34 115 -47 66 -20 94 -23 235 -22 132
1 183 6 292 28 321 65 718 201 1164 400 79 35 145 63 146 62 0 0 -53 -284
-119 -631 -66 -346 -122 -668 -125 -715 -4 -78 -3 -88 19 -120 26 -38 60 -58
112 -67 26 -4 57 5 132 38 55 23 117 55 140 70 56 38 172 165 213 233 26 43
629 1337 776 1665 l29 63 170 81 c273 130 628 309 796 402 311 174 456 287
495 388 27 72 11 113 -79 203 -56 56 -91 81 -166 117 -171 83 -381 120 -570
100z m325 -209 c90 -18 201 -73 254 -125 l41 -41 -63 -46 c-182 -135 -635
-377 -1189 -637 l-166 -78 -95 -206 c-748 -1623 -752 -1630 -843 -1711 -31
-27 -114 -74 -120 -67 -2 2 126 681 251 1341 30 159 53 291 51 293 -2 2 -131
-53 -286 -122 -650 -290 -981 -410 -1331 -481 -107 -21 -164 -27 -284 -28
-138 -1 -153 1 -193 22 -23 13 -51 36 -60 51 -45 74 -374 831 -368 847 5 13
15 16 49 12 36 -4 79 -32 287 -187 280 -207 328 -234 415 -234 65 0 -32 -42
1335 569 1835 819 1752 783 1894 820 129 33 278 36 421 8z m-2945 -227 c301
-91 847 -258 860 -263 18 -6 -469 -226 -490 -221 -28 7 -801 480 -794 486 3 3
24 14 47 24 70 29 233 18 377 -26z"/>
</g>
</svg>
