<?xml version="1.0" standalone="no"?>
<!DOCTYPE svg PUBLIC "-//W3C//DTD SVG 20010904//EN"
 "http://www.w3.org/TR/2001/REC-SVG-20010904/DTD/svg10.dtd">
<svg version="1.0" xmlns="http://www.w3.org/2000/svg"
 width="225.000000pt" height="225.000000pt" viewBox="0 0 225.000000 225.000000"
 preserveAspectRatio="xMidYMid meet">

<g transform="translate(0.000000,225.000000) scale(0.100000,-0.100000)"
fill="#000000" stroke="none">
<path d="M670 1800 c0 -16 7 -20 30 -20 l30 0 0 -669 c0 -553 2 -671 14 -680
9 -8 112 -11 357 -9 l344 3 3 678 2 677 30 0 c23 0 30 4 30 20 0 20 -7 20
-420 20 -413 0 -420 0 -420 -20z m740 -680 l0 -660 -320 0 -320 0 0 660 0 660
320 0 320 0 0 -660z"/>
<path d="M844 1657 c-3 -8 -4 -52 -2 -98 l3 -84 95 0 95 0 3 98 3 97 -96 0
c-70 0 -97 -4 -101 -13z m156 -87 l0 -61 -57 3 -58 3 -3 58 -3 57 61 0 60 0 0
-60z"/>
<path d="M1144 1657 c-3 -8 -4 -52 -2 -98 l3 -84 95 0 95 0 3 98 3 97 -96 0
c-70 0 -97 -4 -101 -13z m156 -87 l0 -61 -57 3 -58 3 -3 58 -3 57 61 0 60 0 0
-60z"/>
<path d="M844 1377 c-3 -8 -4 -52 -2 -98 l3 -84 95 0 95 0 3 98 3 97 -96 0
c-70 0 -97 -4 -101 -13z m156 -82 l0 -55 -60 0 -60 0 0 55 0 55 60 0 60 0 0
-55z"/>
<path d="M1144 1377 c-3 -8 -4 -52 -2 -98 l3 -84 95 0 95 0 3 98 3 97 -96 0
c-70 0 -97 -4 -101 -13z m156 -82 l0 -55 -60 0 -60 0 0 55 0 55 60 0 60 0 0
-55z"/>
<path d="M847 1113 c-4 -3 -7 -46 -7 -94 0 -104 -2 -102 120 -97 l75 3 3 98 3
97 -94 0 c-52 0 -97 -3 -100 -7z m153 -88 l0 -55 -60 0 -60 0 0 55 0 55 60 0
60 0 0 -55z"/>
<path d="M1144 1107 c-3 -8 -4 -52 -2 -98 l3 -84 95 0 95 0 3 98 3 97 -96 0
c-70 0 -97 -4 -101 -13z m156 -82 l0 -55 -60 0 -60 0 0 55 0 55 60 0 60 0 0
-55z"/>
<path d="M952 658 c3 -119 5 -143 18 -143 12 0 15 22 18 123 l3 122 99 0 100
0 0 -109 c0 -117 4 -141 26 -141 21 0 25 33 22 165 l-3 120 -143 3 -143 3 3
-143z"/>
<path d="M1504 1676 c-13 -33 7 -36 207 -36 l199 0 0 -590 0 -590 -202 -2
c-173 -3 -203 -5 -203 -18 0 -23 416 -28 439 -4 14 14 16 80 16 609 0 592 0
593 21 598 13 4 20 12 17 24 -3 17 -20 18 -246 21 -206 2 -243 0 -248 -12z"/>
<path d="M220 1500 c0 -15 7 -20 25 -20 l25 0 0 -510 c0 -497 1 -511 20 -530
19 -19 33 -20 200 -20 173 0 180 1 180 20 0 19 -8 20 -177 22 l-178 3 -3 508
-2 507 185 0 c178 0 185 1 185 20 0 19 -7 20 -230 20 -223 0 -230 -1 -230 -20z"/>
<path d="M1505 1480 c-10 -16 4 -30 31 -30 22 0 24 -4 24 -49 0 -47 -2 -50
-27 -53 -17 -2 -28 -9 -28 -18 0 -11 13 -16 48 -18 l47 -3 0 90 0 91 -44 0
c-25 0 -48 -4 -51 -10z"/>
<path d="M1684 1477 c-3 -8 -4 -47 -2 -88 l3 -74 90 0 90 0 0 85 0 85 -88 3
c-67 2 -89 0 -93 -11z m136 -77 l0 -50 -50 0 -50 0 0 50 0 50 50 0 50 0 0 -50z"/>
<path d="M354 1366 c-3 -7 -4 -42 -2 -77 l3 -64 80 0 80 0 3 54 c6 98 3 101
-84 101 -53 0 -76 -4 -80 -14z m116 -66 c0 -39 -1 -40 -35 -40 -34 0 -35 1
-35 40 0 39 1 40 35 40 34 0 35 -1 35 -40z"/>
<path d="M587 1374 c-4 -4 -7 -40 -7 -81 l0 -73 45 0 c38 0 45 3 45 20 0 15
-7 20 -25 20 -22 0 -25 4 -25 40 0 38 2 40 31 40 24 0 30 4 27 18 -2 12 -14
18 -43 20 -23 2 -44 0 -48 -4z"/>
<path d="M1511 1231 c-21 -14 -5 -41 24 -41 23 0 25 -3 25 -49 0 -47 -2 -50
-27 -53 -17 -2 -28 -9 -28 -18 0 -11 12 -15 45 -15 l45 0 0 90 0 90 -35 3
c-19 1 -41 -2 -49 -7z"/>
<path d="M1684 1227 c-3 -8 -4 -49 -2 -93 l3 -79 84 -3 c61 -2 87 1 92 10 13
20 11 152 -3 166 -17 17 -167 16 -174 -1z m136 -88 l0 -50 -47 3 -48 3 -3 48
-3 47 50 0 51 0 0 -51z"/>
<path d="M354 1147 c-3 -8 -4 -43 -2 -78 l3 -64 80 0 80 0 0 75 0 75 -78 3
c-59 2 -79 0 -83 -11z m116 -67 c0 -39 -1 -40 -35 -40 -34 0 -35 1 -35 40 0
39 1 40 35 40 34 0 35 -1 35 -40z"/>
<path d="M580 1080 l0 -80 50 0 c43 0 50 3 50 20 0 16 -7 20 -30 20 -28 0 -30
2 -30 40 0 36 3 40 25 40 18 0 25 5 25 20 0 17 -7 20 -45 20 l-45 0 0 -80z"/>
<path d="M1505 981 c-10 -17 4 -31 31 -31 22 0 24 -4 24 -49 0 -47 -2 -50 -27
-53 -17 -2 -28 -9 -28 -18 0 -11 12 -15 45 -15 l45 0 0 85 0 85 -42 3 c-22 2
-44 -2 -48 -7z"/>
<path d="M1684 977 c-3 -8 -4 -47 -2 -88 l3 -74 84 -3 c61 -2 87 1 92 10 10
15 12 129 3 152 -8 21 -172 24 -180 3z m136 -78 l0 -50 -47 3 c-46 3 -48 4
-51 36 -5 53 2 62 53 62 l45 0 0 -51z"/>
<path d="M354 927 c-3 -8 -4 -41 -2 -73 l3 -59 80 0 80 0 0 70 0 70 -78 3
c-59 2 -79 0 -83 -11z m116 -62 c0 -33 -2 -35 -35 -35 -33 0 -35 2 -35 35 0
33 2 35 35 35 33 0 35 -2 35 -35z"/>
<path d="M580 865 l0 -75 50 0 c43 0 50 3 50 20 0 16 -7 20 -30 20 -28 0 -30
3 -30 34 0 30 3 35 27 38 17 2 29 10 31 21 3 14 -4 17 -47 17 l-51 0 0 -75z"/>
<path d="M362 748 c-7 -7 -12 -39 -12 -73 0 -34 5 -66 12 -73 16 -16 130 -16
146 0 16 16 16 130 0 146 -7 7 -39 12 -73 12 -34 0 -66 -5 -73 -12z m108 -73
c0 -33 -2 -35 -35 -35 -33 0 -35 2 -35 35 0 33 2 35 35 35 33 0 35 -2 35 -35z"/>
<path d="M584 747 c-3 -8 -4 -45 -2 -83 l3 -69 40 0 c33 0 40 3 40 20 0 13 -8
21 -22 23 -19 3 -23 10 -23 37 0 27 4 34 23 37 14 2 22 10 22 23 0 16 -8 21
-38 23 -25 2 -39 -1 -43 -11z"/>
<path d="M1505 750 c-10 -16 4 -30 31 -30 22 0 24 -4 24 -44 0 -41 -2 -45 -27
-48 -17 -2 -28 -9 -28 -18 0 -11 13 -16 48 -18 l47 -3 0 85 0 86 -44 0 c-25 0
-48 -4 -51 -10z"/>
<path d="M1684 747 c-3 -8 -4 -45 -2 -83 l3 -69 90 0 90 0 0 80 0 80 -88 3
c-67 2 -89 0 -93 -11z m136 -72 l0 -45 -50 0 -50 0 0 45 0 45 50 0 50 0 0 -45z"/>
</g>
</svg>
