<?xml version="1.0" standalone="no"?>
<!DOCTYPE svg PUBLIC "-//W3C//DTD SVG 20010904//EN"
 "http://www.w3.org/TR/2001/REC-SVG-20010904/DTD/svg10.dtd">
<svg version="1.0" xmlns="http://www.w3.org/2000/svg"
 width="225.000000pt" height="225.000000pt" viewBox="0 0 225.000000 225.000000"
 preserveAspectRatio="xMidYMid meet">

<g transform="translate(0.000000,225.000000) scale(0.100000,-0.100000)"
fill="#000000" stroke="none">
<path d="M993 2240 c-12 -5 -26 -18 -32 -29 -7 -13 -11 -137 -11 -355 l0 -335
-22 -3 -23 -3 -3 -677 -2 -678 225 0 225 0 -2 678 -3 677 -22 3 -23 3 0 334
c0 183 -3 341 -6 350 -13 33 -59 45 -171 44 -59 0 -118 -4 -130 -9z m237 -390
l0 -330 -110 0 -110 0 0 323 c0 178 3 327 7 330 3 4 53 7 110 7 l103 0 0 -330z
m20 -640 l0 -50 -125 0 -125 0 0 50 0 50 125 0 125 0 0 -50z"/>
<path d="M751 1505 c-48 -15 -94 -53 -119 -100 -15 -27 -17 -87 -20 -534 -3
-541 0 -588 45 -642 32 -37 92 -69 133 -69 l30 0 -2 677 c-2 440 -6 677 -13
679 -5 1 -30 -4 -54 -11z"/>
<path d="M1437 1513 c-4 -3 -7 -309 -7 -680 l0 -673 30 0 c41 0 101 32 133 69
45 54 48 101 45 642 -2 404 -6 509 -17 529 -27 50 -75 91 -125 105 -58 18 -51
17 -59 8z"/>
<path d="M824 117 c-3 -8 -4 -36 -2 -63 3 -49 3 -49 38 -49 l35 0 0 60 0 60
-33 3 c-21 2 -34 -2 -38 -11z"/>
<path d="M1354 117 c-3 -8 -4 -36 -2 -63 3 -49 3 -49 38 -49 l35 0 0 60 0 60
-33 3 c-21 2 -34 -2 -38 -11z"/>
</g>
</svg>
