<?xml version="1.0" standalone="no"?>
<!DOCTYPE svg PUBLIC "-//W3C//DTD SVG 20010904//EN"
 "http://www.w3.org/TR/2001/REC-SVG-20010904/DTD/svg10.dtd">
<svg version="1.0" xmlns="http://www.w3.org/2000/svg"
 width="218.000000pt" height="231.000000pt" viewBox="0 0 218.000000 231.000000"
 preserveAspectRatio="xMidYMid meet">

<g transform="translate(0.000000,231.000000) scale(0.100000,-0.100000)"
fill="#000000" stroke="none">
<path d="M960 2296 c-145 -31 -259 -95 -363 -206 -110 -116 -170 -250 -183
-408 -11 -134 28 -295 99 -407 43 -68 139 -168 199 -206 l49 -32 -69 -27
c-387 -150 -647 -506 -687 -937 l-6 -73 69 0 69 0 6 88 c28 385 317 728 702
832 113 31 301 38 420 15 180 -34 340 -115 474 -241 101 -95 158 -173 215
-295 54 -115 76 -197 83 -311 l6 -88 68 0 69 0 0 33 c0 64 -30 228 -55 302
-102 304 -334 553 -625 670 l-81 33 44 25 c54 32 144 119 187 182 258 375 80
894 -355 1031 -99 31 -241 40 -335 20z m318 -154 c163 -62 280 -187 338 -362
24 -73 24 -214 0 -295 -38 -130 -115 -235 -227 -309 -87 -57 -159 -79 -279
-84 -94 -4 -114 -1 -183 22 -100 34 -168 77 -239 154 -61 66 -101 139 -123
223 -17 63 -19 204 -4 269 26 114 122 250 227 322 133 92 339 117 490 60z"/>
</g>
</svg>
